<?xml version="1.0" encoding="utf-8"?>
<!-- Generator: Adobe Illustrator 17.1.0, SVG Export Plug-In . SVG Version: 6.00 Build 0)  -->
<!DOCTYPE svg PUBLIC "-//W3C//DTD SVG 1.1//EN" "http://www.w3.org/Graphics/SVG/1.1/DTD/svg11.dtd">
<svg version="1.1" id="Слой_1" xmlns="http://www.w3.org/2000/svg" xmlns:xlink="http://www.w3.org/1999/xlink" x="0px" y="0px"
	 viewBox="0 0 168 32" enable-background="new 0 0 168 32" xml:space="preserve">
<g>
	<path fill="#232323" d="M38.8,31.8l1.6-4.9c-6.3-1.1-12.6-2.4-18.8-4C25.4,25.3,31.4,28.7,38.8,31.8L38.8,31.8z"/>
	<path fill="#232323" d="M15.9,21.4c-0.1-0.1-0.2-0.2-0.3-0.3l0-0.1c0-0.1-0.1-0.2-0.1-0.2v-0.1c0-0.1,0-0.2,0-0.3l2.3-8.4
		c-4.1-0.8-8.3-1.7-12.8-2.8c2.1,3.3,5.8,8,5.8,8.1c0.2,0.2,0.2,0.5,0.2,0.8c0,0.3-0.2,0.5-0.4,0.6c-0.2,0.1-3.8,2.3-10.6,5.5
		c7.6,2.4,21.6,5.5,33,7.2C22.5,26.4,16,21.5,15.9,21.4z"/>
	<path fill="#232323" d="M143.7,0.7c-39.6,10.6-81.2,10.6-120.8,0L17.7,20c43,11.6,88.3,11.6,131.3,0L143.7,0.7z M125.6,27l1.4,4.8
		c6-2.5,11.8-5.4,17.4-8.7C138.2,24.7,131.9,26,125.6,27z"/>
	<path fill="#232323" d="M156.3,16.1c-0.1-0.3,0-0.6,0.2-0.8c0-0.1,3.8-4.8,5.8-8.1c-4.7,1.1-9.4,2.1-14.1,3l2.8,10.2v0.3
		c0,0,0,0.1,0,0.2c0,0.1,0,0.1-0.1,0.2l-0.1,0.2c0,0-0.1,0.1-0.1,0.1l-0.1,0.1l0,0c-0.1,0-7,4.8-17.4,9.7
		c11.9-2.1,26.8-6.4,34.2-8.9c-3.6-1.7-7.2-3.5-10.7-5.5C156.6,16.6,156.4,16.4,156.3,16.1L156.3,16.1z"/>
	<path fill="none" d="M170.4,21.5c-6-2.7-10-4.9-11.7-5.8c1.6-2,5.3-7,6.4-9.5c0.2-0.5,0-1.1-0.5-1.3c-0.2-0.1-0.4-0.1-0.6-0.1
		c-5.4,1.3-10.8,2.5-16.3,3.5l-2.5-9c-0.1-0.5-0.7-0.8-1.2-0.7C104.3,9.5,62.3,9.5,22.5-1.4c-0.5-0.1-1,0.2-1.2,0.7l-3,10.8
		c-5-1-10.1-2.1-15-3.4C3.1,6.2,2.6,6,2.1,6.3S1.4,7,1.6,7.5C1.7,7.8,2,8,2.3,8.1c1.2,2.5,4.9,7.5,6.4,9.5C4.9,19.6,0.9,21.6-3,23.4
		c-0.5,0.2-0.7,0.8-0.5,1.3c0.1,0.2,0.3,0.4,0.5,0.5C5.1,28,26.2,32.7,39.3,34l0.1,0c0.2,0,0.4-0.1,0.5-0.2c0.1,0,0.1-0.1,0.1-0.2
		c0.1-0.1,0.2-0.2,0.2-0.3l0,0c0,0,0,0,0,0l2-6.1c13.6,2.2,27.3,3.3,41,3.3c13.5,0,27-1.1,40.3-3.2l1.8,6c0,0,0,0,0,0l0,0
		c0,0.1,0.1,0.1,0.1,0.2c0.1,0.1,0.1,0.2,0.2,0.3c0.1,0.1,0.3,0.1,0.4,0.1c0,0,0.1,0,0.1,0h0.1c13.7-1.4,36.6-8.2,43.9-10.8
		c0.4-0.1,0.6-0.5,0.6-0.9C171,22,170.8,21.6,170.4,21.5L170.4,21.5z M0,24.1c6.8-3.2,10.5-5.4,10.6-5.5c0.2-0.1,0.4-0.4,0.4-0.6
		c0-0.3,0-0.6-0.2-0.8c0-0.1-3.8-4.8-5.8-8.1c4.5,1.1,8.7,2,12.8,2.8l-2.3,8.4v0c0,0.1,0,0.2,0,0.3v0.1c0,0.1,0,0.2,0.1,0.2l0,0.1
		c0.1,0.1,0.1,0.2,0.3,0.3c0.1,0.1,6.6,4.9,17,9.9C21.6,29.6,7.6,26.5,0,24.1L0,24.1z M38.8,31.8c-6-2.5-11.7-5.4-17.2-8.8
		c6.2,1.6,12.5,2.9,18.8,4L38.8,31.8L38.8,31.8z M17.7,20l5.3-19.3c39.6,10.6,81.2,10.6,120.8,0L149,20C106,31.6,60.7,31.6,17.7,20
		L17.7,20z M125.6,27.1c6.3-1.1,12.6-2.4,18.8-3.9c-5.6,3.3-11.4,6.2-17.4,8.7L125.6,27.1z M133.3,31.1c10.4-4.9,17.3-9.6,17.4-9.7
		l0,0l0.1-0.1c0,0,0.1-0.1,0.1-0.1L151,21l0.1-0.2v-0.2c0-0.1,0-0.1,0-0.2v0l-2.8-10.2c4.7-0.9,9.4-1.8,14.1-3
		c-2.1,3.3-5.8,8.1-5.8,8.1c-0.3,0.4-0.3,1,0.2,1.3c0,0,0.1,0,0.1,0.1c0.2,0.1,3.9,2.3,10.7,5.5C160.1,24.7,145.2,29,133.3,31.1
		L133.3,31.1z"/>
</g>
<g>
	<g>
		<path fill="#151515" d="M33.9,10.3c0.5,0,1,0.1,1.7,0.2c0.7,0.1,1.3,0.4,1.8,0.9c0.3,0.4,0.4,0.9,0.3,1.4
			c-0.1,0.6-0.6,1.2-1.4,1.4c0,0,0,0,0,0c0.8,0.4,1.2,1.2,1,2c-0.1,0.6-0.4,1-0.8,1.3c-0.5,0.4-1.4,0.5-2.6,0.2
			c-0.6-0.1-1-0.2-1.4-0.4C32.9,15.1,33.4,12.7,33.9,10.3z M34.8,13.5c0.1,0,0.2,0,0.3,0.1c0.5,0.1,1-0.2,1.1-0.8
			c0.1-0.5-0.1-1-0.7-1.1c-0.2,0-0.3,0-0.4,0C35,12.2,34.9,12.9,34.8,13.5z M34.1,16.7c0.1,0,0.2,0.1,0.3,0.1
			c0.6,0.1,1.2-0.1,1.3-0.9c0.1-0.7-0.3-1.2-0.9-1.3c-0.1,0-0.2,0-0.3-0.1C34.4,15.3,34.3,16,34.1,16.7z"/>
		<path fill="#151515" d="M43,15.6c-0.5,2.8-1.7,3.7-3.1,3.5c-1.7-0.3-2.1-2.2-1.7-4.2c0.4-2,1.5-3.6,3.1-3.3
			C43.1,11.9,43.3,13.9,43,15.6z M39.7,15.1c-0.3,1.7-0.1,2.6,0.5,2.7c0.6,0.1,1-0.9,1.3-2.4c0.2-1.3,0.2-2.5-0.4-2.6
			C40.5,12.7,40,13.5,39.7,15.1z"/>
		<path fill="#151515" d="M44.1,12.4c0.4-0.2,1-0.3,1.7-0.2c1.4,0.2,1.9,1.2,1.8,2.1c-0.1,0.8-0.7,1.4-1.5,1.5c0,0,0,0,0,0
			c0.9,0.3,1.4,1.1,1.2,2.1c-0.2,1.4-1.6,2-2.9,1.8c-0.6-0.1-1.2-0.3-1.5-0.6c0.1-0.4,0.3-0.8,0.4-1.1c0.3,0.2,0.7,0.4,1.1,0.5
			c0.8,0.1,1.3-0.2,1.4-0.8c0.1-0.8-0.5-1.2-1.3-1.4c-0.1,0-0.1,0-0.2,0c0.1-0.4,0.1-0.7,0.2-1.1c0,0,0.1,0,0.1,0
			c0.7,0.1,1.4-0.1,1.5-0.8c0.1-0.5-0.2-0.9-0.8-1c-0.3-0.1-0.8,0-1.1,0.1C44.1,13.2,44.1,12.8,44.1,12.4z"/>
		<path fill="#151515" d="M52.9,18.2c0.1-0.7,0.1-1.7,0.2-2.4c0,0,0,0,0,0c-0.2,0.8-0.5,1.7-0.8,2.2c-0.3,0.8-0.7,1.7-1,2.5
			c-0.4,0-0.7-0.1-1.1-0.1c-0.1-0.9-0.2-1.8-0.3-2.7c-0.1-0.6-0.1-1.6-0.1-2.4c0,0,0,0,0,0c-0.1,0.8-0.3,1.7-0.4,2.4
			c-0.2,0.8-0.3,1.7-0.5,2.5c-0.4-0.1-0.9-0.1-1.3-0.2c0.5-2.4,1.1-4.8,1.6-7.3c0.5,0.1,1,0.1,1.5,0.2c0.1,0.9,0.2,1.8,0.2,2.7
			c0.1,1,0.2,1.8,0.2,2.6c0,0,0,0,0,0c0.2-0.8,0.5-1.6,0.8-2.5c0.3-0.9,0.6-1.7,0.9-2.6c0.5,0.1,1,0.1,1.5,0.2
			c-0.1,2.5-0.3,4.9-0.4,7.4c-0.4-0.1-0.9-0.1-1.3-0.2C52.8,20,52.9,19.1,52.9,18.2z"/>
		<path fill="#151515" d="M60.1,17.7c-0.3,2.8-1.4,3.8-2.9,3.7c-1.8-0.2-2.2-2-2-4.1c0.2-2,1.2-3.7,2.9-3.5
			C59.9,14.1,60.2,16.1,60.1,17.7z M56.7,17.5c-0.2,1.7,0.1,2.6,0.7,2.6c0.6,0.1,1-1,1.1-2.5c0.1-1.3,0-2.5-0.6-2.6
			C57.3,15.1,56.9,16,56.7,17.5z"/>
		<path fill="#151515" d="M62.4,14.4c0.4,1.1,0.7,2.2,1.1,3.3c0,0,0.1,0,0.1,0c0.1-1.1,0.2-2.1,0.3-3.2c0.4,0,0.9,0.1,1.3,0.1
			c-0.1,1.1-0.2,2.1-0.2,3.2c0,0,0.1,0,0.1,0c0.5-1,1.1-2.1,1.6-3.1c0.5,0,1.1,0.1,1.6,0.1c-0.7,1.1-1.5,2.2-2.2,3.3
			c1,0.3,1.3,1.3,1.5,2.2c0.1,0.6,0.2,1.3,0.4,1.9c-0.5,0-1-0.1-1.5-0.1c-0.1-0.5-0.2-1.1-0.3-1.6c-0.1-0.7-0.3-1.6-1.2-1.7
			c0,0-0.1,0-0.1,0c-0.1,1-0.2,2.1-0.2,3.1c-0.5,0-0.9-0.1-1.4-0.1c0.1-1,0.2-2.1,0.2-3.1c0,0-0.1,0-0.1,0c-0.8-0.1-1.2,0.8-1.4,1.5
			c-0.2,0.5-0.3,1.1-0.6,1.5c-0.5,0-1-0.1-1.4-0.1c0.3-0.6,0.5-1.2,0.7-1.9c0.3-0.9,0.7-1.9,1.8-2c-0.6-1.2-1.2-2.4-1.7-3.6
			C61.3,14.3,61.9,14.3,62.4,14.4z"/>
		<path fill="#151515" d="M70.5,14.9c-0.1,1-0.1,2-0.2,3c0.5,0,1,0.1,1.5,0.1c0-1,0.1-2,0.1-3c0.5,0,1,0,1.5,0.1
			c-0.1,2.5-0.2,4.9-0.3,7.4c-0.5,0-1,0-1.5-0.1c0-1,0.1-2.1,0.1-3.1c-0.5,0-1,0-1.6-0.1c-0.1,1-0.1,2.1-0.2,3.1
			c-0.5,0-1-0.1-1.5-0.1c0.1-2.5,0.3-4.9,0.4-7.4C69.6,14.9,70.1,14.9,70.5,14.9z"/>
		<path fill="#151515" d="M76.3,15.1c0,0.9-0.1,1.8-0.1,2.8c0.2,0,0.4,0,0.6,0c1.3,0,2.3,0.9,2.3,2.3c0,0.7-0.3,1.3-0.7,1.7
			c-0.5,0.5-1.4,0.8-2.5,0.7c-0.5,0-1-0.1-1.3-0.1c0.1-2.5,0.2-4.9,0.2-7.4C75.3,15.1,75.8,15.1,76.3,15.1z M76.1,21.4
			c0.1,0,0.2,0,0.3,0c0.6,0,1.1-0.5,1.1-1.2c0-0.7-0.4-1.2-1-1.2c-0.1,0-0.2,0-0.3,0C76.1,19.9,76.1,20.6,76.1,21.4z M81.1,15.2
			c0,2.5,0,4.9-0.1,7.4c-0.5,0-1,0-1.5,0c0-2.5,0.1-4.9,0.1-7.4C80.1,15.2,80.6,15.2,81.1,15.2z"/>
		<path fill="#151515" d="M83.7,15.2c0,0.5,0,1.1,0,1.6c0,1.4-0.1,2.6-0.1,3.4c0,0,0,0,0,0c0.2-0.6,0.6-1.6,0.8-2.2
			c0.4-1,0.7-1.9,1.1-2.9c0.4,0,0.9,0,1.3,0c0,2.5,0.1,4.9,0.1,7.4c-0.4,0-0.9,0-1.3,0c0-0.6,0-1.1,0-1.7c0-1.5,0-2.6,0.1-3.3
			c0,0,0,0,0,0c-0.2,0.7-0.5,1.6-0.7,2.2c-0.4,0.9-0.7,1.9-1.1,2.8c-0.5,0-0.9,0-1.4,0c0-2.5,0-4.9,0-7.4
			C82.8,15.2,83.2,15.2,83.7,15.2z M84.1,13.7c0,0.4,0.2,0.6,0.5,0.6c0.3,0,0.5-0.2,0.5-0.6c0.3,0,0.6,0,0.9,0
			c-0.1,0.9-0.6,1.3-1.4,1.3c-0.8,0-1.3-0.3-1.4-1.3C83.5,13.7,83.8,13.7,84.1,13.7z"/>
		<path fill="#151515" d="M89.9,15.3c0.4-0.1,1-0.2,1.7-0.2c0.7,0,1.4,0,1.9,0.5c0.4,0.3,0.6,0.8,0.6,1.3c0,0.7-0.3,1.3-1,1.7
			c0,0,0,0,0,0c0.9,0.2,1.4,0.9,1.4,1.7c0,0.6-0.2,1.1-0.5,1.5c-0.4,0.5-1.2,0.8-2.5,0.8c-0.6,0-1.1,0-1.4,0
			C90,20.1,89.9,17.7,89.9,15.3z M91.4,18.1c0.1,0,0.2,0,0.3,0c0.5,0,0.9-0.5,0.9-1.1c0-0.5-0.3-0.9-0.9-0.9c-0.2,0-0.3,0-0.4,0.1
			C91.4,16.8,91.4,17.5,91.4,18.1z M91.5,21.4c0.1,0,0.2,0,0.3,0c0.6,0,1.1-0.4,1.1-1.2c0-0.7-0.6-1.1-1.2-1.1c-0.1,0-0.2,0-0.3,0
			C91.5,19.9,91.5,20.7,91.5,21.4z"/>
		<path fill="#151515" d="M96.7,14.8c0.1,0.9,0.1,1.8,0.2,2.8c0.2,0,0.4-0.1,0.5-0.1c1.3-0.1,2.4,0.7,2.5,2.1
			c0.1,0.7-0.1,1.3-0.5,1.8c-0.5,0.6-1.3,0.9-2.4,0.9c-0.5,0-1,0-1.3,0c-0.1-2.5-0.3-4.9-0.4-7.4C95.7,14.9,96.2,14.9,96.7,14.8z
			 M97,21.1c0.1,0,0.2,0,0.3,0c0.6,0,1-0.6,1-1.3c0-0.7-0.5-1.2-1.1-1.2c-0.1,0-0.2,0-0.3,0.1C97,19.5,97,20.3,97,21.1z M101.5,14.5
			c0.2,2.5,0.4,4.9,0.6,7.4c-0.5,0-1,0.1-1.5,0.1c-0.2-2.5-0.4-4.9-0.5-7.4C100.5,14.6,101,14.6,101.5,14.5z"/>
		<path fill="#151515" d="M104.1,14.3c0,0.5,0.1,1.1,0.1,1.6c0.1,1.4,0.1,2.6,0.2,3.4c0,0,0,0,0,0c0.2-0.7,0.5-1.7,0.6-2.2
			c0.3-1,0.6-2,0.8-3c0.4,0,0.9-0.1,1.3-0.1c0.2,2.5,0.5,4.9,0.7,7.4c-0.4,0-0.9,0.1-1.3,0.1c-0.1-0.6-0.1-1.1-0.2-1.7
			c-0.1-1.5-0.2-2.6-0.2-3.3c0,0,0,0,0,0c-0.1,0.7-0.4,1.6-0.5,2.2c-0.3,1-0.6,1.9-0.9,2.9c-0.5,0-0.9,0.1-1.4,0.1
			c-0.2-2.5-0.4-4.9-0.6-7.4C103.2,14.4,103.7,14.3,104.1,14.3z"/>
		<path fill="#151515" d="M111.9,13.5c0.1,0.4,0.1,0.8,0.2,1.2c-0.7,0.1-1.3,0.2-2,0.2c0.2,2,0.5,4.1,0.7,6.1
			c-0.5,0.1-1,0.1-1.5,0.2c-0.3-2.5-0.5-4.9-0.8-7.4C109.6,13.8,110.8,13.6,111.9,13.5z"/>
		<path fill="#151515" d="M112.7,13.5c0.4-0.1,0.9-0.3,1.5-0.3c0.9-0.1,1.6-0.1,2.1,0.3c0.5,0.3,0.8,0.9,0.9,1.5
			c0.1,0.8-0.1,1.4-0.4,1.9c-0.4,0.5-1.1,0.9-1.8,0.9c-0.1,0-0.2,0-0.3,0c0.1,0.9,0.2,1.8,0.4,2.7c-0.5,0.1-1,0.1-1.5,0.2
			C113.3,18.3,113,15.9,112.7,13.5z M114.6,16.7c0.1,0,0.1,0,0.2,0c0.7-0.1,1-0.7,0.9-1.3c-0.1-0.6-0.4-1.1-1.1-1
			c-0.1,0-0.3,0.1-0.3,0.1C114.4,15.1,114.5,15.9,114.6,16.7z"/>
		<path fill="#151515" d="M119.2,12.5c0.1,0.9,0.3,1.8,0.4,2.7c0.2-0.1,0.4-0.1,0.5-0.1c1.3-0.2,2.4,0.5,2.6,1.8
			c0.1,0.7,0,1.3-0.4,1.8c-0.4,0.6-1.2,1-2.3,1.2c-0.5,0.1-1,0.1-1.3,0.1c-0.4-2.4-0.7-4.9-1.1-7.3
			C118.2,12.6,118.7,12.6,119.2,12.5z M120.1,18.7c0.1,0,0.2,0,0.3,0c0.6-0.1,1-0.7,0.9-1.4c-0.1-0.7-0.6-1.1-1.2-1.1
			c-0.1,0-0.2,0-0.3,0.1C119.9,17.2,120,17.9,120.1,18.7z M124,11.7c0.4,2.4,0.8,4.9,1.3,7.3c-0.5,0.1-1,0.2-1.5,0.3
			c-0.4-2.4-0.8-4.9-1.2-7.3C123,11.9,123.5,11.8,124,11.7z"/>
		<path fill="#151515" d="M126.7,11.2c0.4,2,0.7,4,1.1,6.1c0.4-0.1,0.8-0.2,1.2-0.2c-0.4-2-0.8-4-1.1-6.1c0.5-0.1,0.9-0.2,1.4-0.3
			c0.4,2,0.8,4,1.2,6c0.4-0.1,0.8-0.2,1.2-0.2c-0.4-2-0.8-4-1.2-6c0.5-0.1,0.9-0.2,1.4-0.3c0.5,2.4,1,4.8,1.5,7.3
			c-2.3,0.5-4.6,0.9-6.8,1.3c-0.4-2.4-0.9-4.9-1.3-7.3C125.7,11.4,126.2,11.3,126.7,11.2z"/>
	</g>
</g>
</svg>
