<?xml version="1.0" encoding="UTF-8"?>
<svg width="59px" height="47px" viewBox="0 0 59 47" version="1.1" xmlns="http://www.w3.org/2000/svg" xmlns:xlink="http://www.w3.org/1999/xlink">
    <!-- Generator: Sketch 48.2 (47327) - http://www.bohemiancoding.com/sketch -->
    <title>Group 5</title>
    <desc>Created with Sketch.</desc>
    <defs></defs>
    <g id="Chat" stroke="none" stroke-width="1" fill="none" fill-rule="evenodd" transform="translate(-928.000000, -1922.000000)">
        <g id="Group-5" transform="translate(928.000000, 1922.000000)">
            <circle id="Oval-33" fill="#FFCC01" cx="27.5" cy="23.5" r="22.5"></circle>
            <g id="Group-8" transform="translate(15.000000, 11.000000)">
                <rect id="Rectangle-2" x="0" y="0" width="25" height="25"></rect>
                <path d="M1.19989667,11.8940673 C1.02389035,11.4561098 0.968377177,10.9453195 1.01661736,10.477187 C1.07358513,9.92441092 1.23406779,9.38697439 1.5441594,8.92191463 L3.4029243,9.30169925 L3.21141817,9.64099386 C3.15669191,9.79023644 3.11534318,9.94305585 3.0869666,10.0995481 C3.0726114,10.2594252 3.07187217,10.4193742 3.08551201,10.5794193 C3.11205245,10.7268375 3.15089737,10.8707988 3.20245212,11.0113274 C3.2665498,11.1458065 3.3415212,11.2737802 3.42688939,11.3956564 C3.48826864,11.4689694 3.55360631,11.5383455 3.62209163,11.6046489 C4.16570579,10.5381537 4.40940684,10.0421102 5.35413227,9.25880869 C7.26542594,7.67396148 9.79714129,6.80116725 12.4829486,6.80116725 C13.2663329,6.80116725 14.0377943,6.87630466 14.7833591,7.02489909 C15.3346993,6.43301794 16.0582782,5.99121958 16.9414813,5.70814599 C17.6916245,5.46773028 18.5427787,5.34585404 19.4712651,5.34585404 C20.2969281,5.34585404 20.8887109,5.4457892 20.9134868,5.45003818 L21.8216565,5.6059063 L20.4177551,10.235643 C20.7861499,10.6719921 21.1058037,11.1389483 21.3728535,11.6309423 L24,12.3759069 L24,18.3692076 L21.3726627,19.1142442 C20.8258771,20.1199813 20.0540819,21.025207 19.1120033,21.7665948 L19.5362689,25 L13.7587023,25 L13.0172867,23.9322086 C12.8394681,23.9400104 12.6608864,23.9439473 12.4829248,23.9439473 C11.7212879,23.9439473 10.9655886,23.8730109 10.2290137,23.7326744 L9.40237301,25 L3.60964042,25 L4.21794841,20.3669265 C3.6593352,19.7102783 3.21577829,18.9932322 2.89693525,18.2308396 C2.5138276,17.3146673 2.31955535,16.3529804 2.31955535,15.3725693 C2.31955535,14.7589391 2.39500366,14.1553432 2.54446954,13.5661747 C2.35379801,13.4450667 2.17435789,13.3050182 2.00579148,13.1438689 C1.63830287,12.7924274 1.38801669,12.3621998 1.19989667,11.8940673 Z M6.49553467,19.0588892 L6.7283983,19.3094441 L5.86538462,22.7678571 L8.59228006,22.7678571 L9.89893436,21.1434755 L10.3917082,21.2628423 C11.0920584,21.4324609 11.8209814,21.5184544 12.5581497,21.5184544 C12.8171061,21.5184544 13.0775674,21.5076572 13.3323482,21.4863829 L13.7452328,21.4519001 L14.5277402,22.7678571 L17.2680106,22.7678571 L16.9087105,20.3628119 L17.2680106,20.1102725 C18.1636432,19.4807911 18.8718573,18.6630627 19.3160914,17.7455135 L19.4575985,17.4531994 L21.3542099,16.9153022 L21.3542099,13.7854353 L19.4575985,13.2476021 L19.3160914,12.955288 C19.05563,12.4173054 18.707352,11.9155554 18.2809441,11.4640145 L17.9912105,11.1572117 L19.1120033,7.58928571 C19.0443232,7.58745062 18.973718,7.58640504 18.9005481,7.58640504 C18.2333066,7.58640504 17.7844307,7.58928571 17.0890827,7.84007538 C16.3937346,8.09086504 15.7921266,8.69664353 15.4615264,9.15849084 L15.1770283,9.55591766 L14.7045182,9.43877011 C14.0181152,9.26859674 13.2959539,9.18230444 12.5581497,9.18230444 C8.37145831,9.18230444 4.96534549,11.94927 4.96534549,15.3503688 C4.96534549,16.6993368 5.49444998,17.9817078 6.49553467,19.0588892 Z M4.14919962,7.60061777 C3.83217101,6.91550065 3.65514521,6.15148909 3.65514521,5.34585404 C3.65514521,2.39342038 6.03264321,0 8.96543562,0 C11.898228,0 14.275726,2.39342038 14.275726,5.34585404 C14.275726,5.37053084 14.2755599,5.39516858 14.2752288,5.41976619 C14.1358077,5.39282048 13.9884654,5.36818309 13.8332018,5.34585404 C13.0684621,5.23587386 12.3290075,5.17680265 11.6148381,5.1686404 C11.5242281,3.77504111 10.3726819,2.67292702 8.96543562,2.67292702 C7.49903941,2.67292702 6.31029041,3.86963721 6.31029041,5.34585404 C6.31029041,5.63998111 6.35748148,5.92301229 6.44465718,6.18769288 C5.62945486,6.55789787 4.86430234,7.02887283 4.14919962,7.60061777 Z M16.2797586,14.9264019 C15.5465605,14.9264019 14.952186,14.3280468 14.952186,13.5899384 C14.952186,12.85183 15.5465605,12.2534749 16.2797586,12.2534749 C17.0129567,12.2534749 17.6073312,12.85183 17.6073312,13.5899384 C17.6073312,14.3280468 17.0129567,14.9264019 16.2797586,14.9264019 Z" id="Combined-Shape-Copy" fill="#FFFFFF" fill-rule="nonzero"></path>
            </g>
            <polygon id="Shape-Copy-19" fill="#FFCC01" fill-rule="nonzero" points="53 0 51.375 4.375 47 6 51.375 7.625 53 12 54.625 7.625 59 6 54.625 4.375"></polygon>
            <polygon id="Shape-Copy-20" fill="#FFCC01" fill-rule="nonzero" points="4.5 38 3.28125 41.28125 0 42.5 3.28125 43.71875 4.5 47 5.71875 43.71875 9 42.5 5.71875 41.28125"></polygon>
        </g>
    </g>
</svg>